<!-- Generator: Adobe Illustrator 22.0.1, SVG Export Plug-In  -->
<svg version="1.1"
	 xmlns="http://www.w3.org/2000/svg" xmlns:xlink="http://www.w3.org/1999/xlink" xmlns:a="http://ns.adobe.com/AdobeSVGViewerExtensions/3.0/"
	 x="0px" y="0px" width="142.2px" height="111.9px" viewBox="0 0 142.2 111.9" style="enable-background:new 0 0 142.2 111.9;"
	 xml:space="preserve">
<style type="text/css">
	.st0{fill:#FFFFFF;}
</style>
<defs>
</defs>
<path class="st0" d="M141.9,79.4c1.4-2.1-1.3-4.5-3.3-3c-0.6,0.4-1.2,0.9-1.8,1.4c-2.8,2.2-5.6,4.4-8.5,6.5
	c-16,11.4-34.2,19.2-53.7,21.6c-17.6,2.2-34.4,0.1-48.6-10.9C10,82.6,6.3,64.9,16.7,47.7c12.9-21.3,32.1-34.4,56-40.8
	c12.8-3.4,30.2,1.6,37,15.8c0.5,1,2.5,2.2,3.6,1.9c1.4-0.3,3.1-1.7,3.6-3c1.3-3.1-0.2-5.9-2-8.4c-2.8-3.7-6.4-6.8-10.6-8.7
	c-8.5-4-17.4-5-26.5-4.1c-23,2.4-42,13.3-58.4,29C12.9,35.5,7.4,42.7,3.7,51c-6.1,14.1-4.8,27.4,5.1,39.5
	c9.2,11.2,21.3,17.8,35.3,20c30.8,4.8,58.9-2.1,85.1-19.2C135.5,87.1,139.5,83,141.9,79.4z"/>
</svg>